<?xml version="1.0" encoding="iso-8859-1"?>
<!-- Generator: Adobe Illustrator 19.0.0, SVG Export Plug-In . SVG Version: 6.00 Build 0)  -->
<svg version="1.1" id="Capa_1" xmlns="http://www.w3.org/2000/svg" xmlns:xlink="http://www.w3.org/1999/xlink" x="0px" y="0px"
	 viewBox="0 0 480 480" style="enable-background:new 0 0 480 480;" xml:space="preserve">
<g>
	<g>
		<g>
			<path d="M365.656,273.656c3.123-3.124,3.123-8.188,0-11.312L335.312,232l28-28H448c4.418,0,8-3.582,8-8V52c0-4.418-3.582-8-8-8
				H144c-4.418,0-8,3.582-8,8v160c0,4.418,3.582,8,8,8h12.688l-26.344,26.344l-76.688,76.68c-9.373,9.372-9.375,24.568-0.003,33.941
				c0.001,0.001,0.002,0.002,0.003,0.003l76.688,76.688c1.5,1.5,3.534,2.344,5.656,2.344h64c2.122,0,4.156-0.844,5.656-2.344l56-56
				L365.656,273.656z M152,204V60h288v128h-80c-2.122,0-4.156,0.844-5.656,2.344L280,264.688l-8.408-8.4
				c-15.591-15.636-15.591-40.94,0-56.576l30.064-30.056c1.5-1.5,2.344-3.534,2.344-5.656v-56c0-4.418-3.582-8-8-8H192
				c-4.418,0-8,3.582-8,8v72c0,13.255-10.745,24-24,24H152z M245.656,142.344c-3.124-3.123-8.188-3.123-11.312,0L200,176.688V116h88
				v44.688l-12,12L245.656,142.344z M196.688,420h-57.376l-74.344-74.344c-3.123-3.124-3.123-8.188,0-11.312L136,263.312
				L244.688,372L196.688,420z M227.312,332l42.344-42.344l-11.312-11.312L216,320.688L179.312,284l58.344-58.344l-11.312-11.312
				L168,272.688L147.312,252L240,159.312L264.688,184l-4.408,4.4c-21.824,21.89-21.824,57.31,0,79.2l14.064,14.056
				c3.124,3.123,8.188,3.123,11.312,0L324,243.312L348.688,268L256,360.688L227.312,332z"/>
			<rect x="232" y="420" width="248" height="16"/>
			<rect y="420" width="104" height="16"/>
			<rect x="320" y="356" width="16" height="16"/>
			<rect x="352" y="324" width="16" height="16"/>
			<rect x="416" y="324" width="16" height="16"/>
			<rect x="352" y="388" width="16" height="16"/>
			<rect x="416" y="388" width="16" height="16"/>
			<rect x="288" y="388" width="16" height="16"/>
			<rect x="384" y="356" width="16" height="16"/>
			<rect x="416" y="260" width="16" height="16"/>
			<rect x="384" y="292" width="16" height="16"/>
		</g>
	</g>
</g>
<g>
</g>
<g>
</g>
<g>
</g>
<g>
</g>
<g>
</g>
<g>
</g>
<g>
</g>
<g>
</g>
<g>
</g>
<g>
</g>
<g>
</g>
<g>
</g>
<g>
</g>
<g>
</g>
<g>
</g>
</svg>
