<?xml version="1.0" encoding="iso-8859-1"?>
<!-- Generator: Adobe Illustrator 19.0.0, SVG Export Plug-In . SVG Version: 6.00 Build 0)  -->
<svg version="1.1" id="Capa_1" xmlns="http://www.w3.org/2000/svg" xmlns:xlink="http://www.w3.org/1999/xlink" x="0px" y="0px"
	 viewBox="0 0 512 512" style="enable-background:new 0 0 512 512;" xml:space="preserve">
<linearGradient id="SVGID_1_" gradientUnits="userSpaceOnUse" x1="0.0242" y1="257.949" x2="512.0543" y2="257.949" gradientTransform="matrix(0.9999 0 0 -0.9999 -0.0063 513.9157)">
	<stop  offset="0" style="stop-color:#00F2FE"/>
	<stop  offset="0.021" style="stop-color:#03EFFE"/>
	<stop  offset="0.293" style="stop-color:#24D2FE"/>
	<stop  offset="0.554" style="stop-color:#3CBDFE"/>
	<stop  offset="0.796" style="stop-color:#4AB0FE"/>
	<stop  offset="1" style="stop-color:#4FACFE"/>
</linearGradient>
<path style="fill:url(#SVGID_1_);" d="M487.276,11.472c-12.963-9.419-28.82-13.227-44.645-10.721
	c-15.646,2.477-29.413,10.831-38.827,23.546L218.9,253.643c-6.162-1.025-12.436-1.568-18.777-1.61
	c-32.135-0.255-63.123,12.294-87.262,35.214c-22.236,21.114-31.59,47.784-39.842,71.314c-11.731,33.45-20.998,59.87-60.339,75.38
	c-6.715,2.648-11.483,8.709-12.473,15.859s1.949,14.279,7.691,18.654C10.232,470.232,65.874,512,135.748,512
	c49.847,0,102.351-6.374,148.624-52.61c22.96-22.942,35.604-53.446,35.604-85.893c0-15.492-2.883-30.54-8.394-44.535l47.284-57.904
	c1.147-1.405,2.072-2.919,2.778-4.499c0.475-0.483,0.93-0.994,1.362-1.534c6.906-8.619,5.517-21.204-3.102-28.11l-46.26-37.066
	l121.58-150.801l0.609-0.796c3.141-4.321,7.775-7.161,13.051-7.997c5.272-0.834,10.561,0.434,14.882,3.574
	c8.808,6.4,10.854,18.698,4.663,27.594l-78.25,97.066c-6.932,8.599-5.581,21.187,3.018,28.119c8.598,6.93,21.187,5.58,28.119-3.019
	l78.618-97.523l0.609-0.796C519.99,68.509,514.037,30.918,487.276,11.472z M256.102,431.098
	c-33.977,33.951-72.686,40.907-120.354,40.907c-29.513,0-56.54-9.706-75.588-18.949c30.091-22.785,40.848-53.449,50.6-81.258
	c7.41-21.128,14.409-41.085,29.641-55.548c16.602-15.764,37.749-24.371,59.458-24.224c21.003,0.139,40.978,8.615,56.243,23.868
	c15.399,15.387,23.879,35.843,23.879,57.602S271.501,415.71,256.102,431.098z M319.619,255.886l-30.237,37.028
	c-1.612-1.812-3.282-3.583-5.011-5.31c-7.774-7.768-16.387-14.357-25.617-19.673l29.787-36.946L319.619,255.886z"/>
<g>
</g>
<g>
</g>
<g>
</g>
<g>
</g>
<g>
</g>
<g>
</g>
<g>
</g>
<g>
</g>
<g>
</g>
<g>
</g>
<g>
</g>
<g>
</g>
<g>
</g>
<g>
</g>
<g>
</g>
</svg>
