<svg id="Layer_35" enable-background="new 0 0 64 64" height="512" viewBox="0 0 64 64" width="512" xmlns="http://www.w3.org/2000/svg"><g fill="#f0bc5e"><path d="m60 57h-8c-.552 0-1-.449-1-1s.448-1 1-1h4c1.654 0 3-1.346 3-3s-1.346-3-3-3h-10c-.552 0-1-.449-1-1v-4.328l-.285-.387-5.715 5.715-15-15 8.007-8.007-.129-.176-.358-.084c-2.077-.486-4.27-.733-6.52-.733-10.094 0-18 4.832-18 11 0 .066.003.131.008.197l-.01.675.314.326c3.122 3.25 9.006 5.4 15.739 5.751.532.028.949.465.949.993v8.058c0 1.654 1.346 3 3 3s3-1.346 3-3v-2c0-.551.448-1 1-1s1 .449 1 1v3c0 2.757 2.243 5 5 5h5.646c.411 0 .776.247.929.629l.994 2.485c.458 1.146 1.551 1.886 2.785 1.886h12.646c1.654 0 3-1.346 3-3s-1.346-3-3-3z"/><path d="m62 15c0-2.761-2.239-5-5-5l-13 13h-1l-2.586-2.586c-.905-.905-2.133-1.414-3.414-1.414-1.281 0-2.509.509-3.414 1.414l-.586.586 19 19 .586-.586c.905-.905 1.414-2.133 1.414-3.414 0-1.281-.509-2.509-1.414-3.414l-3.586-3.586v-1z"/><path d="m30 8h-10c-1.105 0-2-.895-2-2v-2c0-1.105.895-2 2-2h10c1.105 0 2 .895 2 2v2c0 1.105-.895 2-2 2z"/></g><path d="m7.311 37.197-.012-.013c.004.005.007.009.012.013z"/><path d="m22.939 58.938c.668.041 1.356.062 2.061.062v-2c-.664 0-1.311-.021-1.939-.059z"/><path d="m20.875 58.745.25-1.984c-.654-.083-1.304-.188-1.929-.313l-.393 1.961c.673.134 1.37.248 2.072.336z"/><path d="m9 48v4c0 2.215 3.104 4.589 7.726 5.907l.549-1.923c-4.434-1.265-6.275-3.219-6.275-3.984v-4z"/><path d="m63 15.414v-.414c0-3.309-2.691-6-6-6h-.414l-8.846 8.846c-2.379-6.533-7.964-11.57-14.74-13.233v-.613c0-1.654-1.346-3-3-3h-10c-1.654 0-3 1.346-3 3v.62c-9.315 2.279-16 10.709-16 20.38v11 2 2c0 1.654 1.346 3 3 3h1v9c0 6.168 8.785 11 20 11 6.914 0 13.156-1.866 16.824-5h-3.521c-3.392 1.884-8.199 3-13.303 3-9.757 0-18-4.122-18-9v-9.853c4.226 2.955 10.262 4.665 17 4.822v-1.986c-6.992-.168-13.115-2.095-17-5.358v-2.752l-.002-.002.01-.675c-.005-.065-.008-.13-.008-.196 0-.779.128-1.536.368-2.265-.232-.57-.368-1.148-.368-1.735 0-4.878 8.243-9 18-9 2.672 0 5.288.318 7.688.898l-10.102 10.102 16.414 16.414 11-11 2 2 1.293-1.293c1.101-1.1 1.707-2.564 1.707-4.121s-.606-3.021-1.707-4.121l-3.293-3.293v-.172zm-5.605-4.394c1.892.186 3.4 1.695 3.586 3.585l-3.981 3.981-3.586-3.586zm-26.395-7.02v2c0 .551-.448 1-1 1h-1v-4h1c.552 0 1 .449 1 1zm-8 3v-4h4v4zm-4-3c0-.551.448-1 1-1h1v4h-1c-.552 0-1-.449-1-1zm-14 37h-1c-.552 0-1-.449-1-1v-2-2c0-.551.448-1 1-1h1zm0-9v1h-1c-.352 0-.686.072-1 .184v-8.184c0-8.613 5.858-16.139 14.078-18.34.303 1.337 1.495 2.34 2.922 2.34h10c1.43 0 2.626-1.008 2.924-2.35 6.257 1.683 11.324 6.563 13.233 12.778l-2.571 2.572h-.172l-2.293-2.293c-1.085-1.085-2.587-1.707-4.121-1.707s-3.036.622-4.121 1.707l-1.293 1.293.762.762c-2.326-.496-4.819-.762-7.348-.762-11.215 0-20 4.832-20 11zm34 15.586-1.586-1.586 8.293-8.293-1.414-1.414-8.293 8.293-1.586-1.586 8.293-8.293-1.414-1.414-8.293 8.293-1.586-1.586 8.293-8.293-1.414-1.414-8.293 8.293-1.586-1.586 8.293-8.293-1.414-1.414-8.293 8.293-1.586-1.586 9.586-9.586 13.586 13.586zm12.879-14.293c.723.723 1.121 1.685 1.121 2.707 0 .965-.354 1.876-1.003 2.583l-17.58-17.58c.7-.639 1.633-1.003 2.583-1.003 1.008 0 1.994.409 2.707 1.121l2.879 2.879h1.828l7.586-7.586 3.586 3.586-7.586 7.586v1.828z"/><path d="m11.352 34.565 1.801.868c.707-1.466 3.516-3.384 8.011-4.127l-.326-1.974c-4.598.761-8.321 2.815-9.486 5.233z"/><path d="m25 29c-.697 0-1.396.027-2.078.08l.156 1.994c.63-.049 1.276-.074 1.922-.074z"/></svg>