<?xml version="1.0" encoding="iso-8859-1"?>
<!-- Generator: Adobe Illustrator 19.0.0, SVG Export Plug-In . SVG Version: 6.00 Build 0)  -->
<svg version="1.1" id="Capa_1" xmlns="http://www.w3.org/2000/svg" xmlns:xlink="http://www.w3.org/1999/xlink" x="0px" y="0px"
	 viewBox="0 0 511.999 511.999" style="enable-background:new 0 0 511.999 511.999;" xml:space="preserve">
<path style="fill:#FD4E26;" d="M53.834,159.652h41.986l64.18-64.177l-0.3-41.691v-0.297l-31.79-31.491
	C98.819-7.094,51.433-7.094,22.044,21.699c-29.392,29.39-29.392,77.071,0,106.164L53.834,159.652z"/>
<path style="fill:#FD3018;" d="M127.909,127.563l32.09-32.088l-0.3-41.691v-0.297l-31.79-31.491
	C98.819-7.094,51.433-7.094,22.044,21.699L127.909,127.563z"/>
<path style="fill:#18A7FC;" d="M361.534,437.064l38.089-37.788l38.988-38.986l-7.498-34.79L223.279,117.368h-0.3l-40.486-1.501
	l-32.989,33.292l-41.988,41.684l9.898,32.092c137.057,137.055,99.269,99.267,208.134,208.132L361.534,437.064z"/>
<polygon style="fill:#1689FC;" points="399.623,399.275 438.611,360.29 431.113,325.499 223.279,117.367 222.978,117.367 
	182.492,115.867 149.503,149.159 "/>
<path style="fill:#B7E0F6;" d="M117.414,223.235l53.082-53.084l52.783-52.783c-15.894-15.896-47.684-47.988-63.58-63.88
	l-52.783,53.08l-53.382,53.084L117.414,223.235z"/>
<path style="fill:#A4D9F5;" d="M106.916,106.568l63.58,63.584l52.783-52.783c-15.894-15.896-47.684-47.988-63.58-63.88
	L106.916,106.568z"/>
<path style="fill:#FEDB41;" d="M479.795,480.755c-10.177,10.177-25.539,13.127-38.762,7.445
	c-18.053-7.758-38.573-16.612-56.656-24.516c-26.015-11.371-46.99-20.775-48.334-22.117l-5.248-5.249l-5.248-5.249l26.541-26.392
	l26.541-26.392l26.242-26.392l26.242-26.392l5.399,5.249L441.91,336c1.23,1.229,10.587,22.169,21.932,48.187
	c7.889,18.09,16.74,38.636,24.489,56.716c5.671,13.232,2.714,28.6-7.465,38.78l-0.537,0.537L479.795,480.755z"/>
<path style="fill:#FE9923;" d="M480.869,479.685l-0.423,0.417L378.628,378.284h0.002l26.242-26.392l26.242-26.392l5.398,5.249
	l5.4,5.249c1.23,1.23,10.586,22.171,21.933,48.186c7.89,18.092,16.74,38.638,24.49,56.715
	C494.004,454.135,491.048,469.504,480.869,479.685z"/>
<path style="fill:#787780;" d="M510.788,490.946c2.4,5.7,1.199,12-3.299,16.196v0.3c-4.199,4.5-10.798,5.696-16.496,3.302
	c-1.739-0.762-23.928-11.364-49.031-22.149l46.767-46.765C499.535,467.044,510.135,489.314,510.788,490.946z"/>
<path style="fill:#57555C;" d="M465.451,465.106l23.279-23.277c10.806,25.213,21.406,47.483,22.059,49.115
	c2.4,5.7,1.199,12-3.299,16.196v0.007L465.451,465.106z"/>
<g>
	<path style="fill:#FD4E26;" d="M353.654,158.724l-32.993-32.991l-41.387,0.901C159.912,245.395,126.924,331.767,154.212,358.16
		c26.696,26.392,112.464-6.597,230.929-125.66l6.297-35.689L353.654,158.724z"/>
	<path style="fill:#FD4E26;" d="M502.105,10.27c-32.993-33.289-113.365,22.493-155.95,56.382l-6.901,35.088l35.691,35.689
		l38.986,38.687l31.788-10.496C479.012,123.035,534.494,42.661,502.105,10.27z"/>
</g>
<g>
	<path style="fill:#FD3018;" d="M445.719,165.621l-31.788,10.496l-38.986-38.687l127.16-127.16
		C534.494,42.661,479.012,123.035,445.719,165.621z"/>
	<path style="fill:#FD3018;" d="M391.438,196.81l-6.297,35.689c-118.465,119.063-204.233,152.052-230.929,125.66l199.441-199.436
		L391.438,196.81z"/>
</g>
<path style="fill:#787780;" d="M175.508,336.868l-0.3-0.3c-29.094-29.092-77.974-27.891-105.868,0
	c-37.188,37.188-50.085,91.771-34.49,140.955c2.101,6.897,4.799,14.794,8.098,21.393c11.696,21.892,30.591,12.595,30.591-2.4
	c0-15.596,12.594-29.792,28.189-30.69c29.991-1.799,51.286-0.901,73.479-23.094C206.695,411.243,202.801,363.557,175.508,336.868z"
	/>
<path style="fill:#57555C;" d="M175.508,336.868c27.292,26.691,31.188,74.375-0.3,105.865
	c-22.193,22.193-43.488,21.294-73.479,23.094c-15.596,0.899-28.189,15.094-28.189,30.69c0,14.995-18.894,24.292-30.591,2.4
	c-3.299-6.599-5.997-14.495-8.098-21.393L175.508,336.868z"/>
<path style="fill:#FD3018;" d="M445.719,165.621c-14.394,16.795-29.991,35.989-50.082,56.082v0.3l-10.496,10.496l-52.483-52.483
	l-53.384-53.382c19.795-21.294,47.384-43.486,66.882-59.981l50.082,49.483L445.719,165.621z"/>
<path style="fill:#E61E14;" d="M385.142,232.5l10.496-10.496v-0.3c20.092-20.093,35.687-39.288,50.082-56.082l-49.481-49.483
	l-63.73,63.73l0.15,0.148L385.142,232.5z"/>
<g>
</g>
<g>
</g>
<g>
</g>
<g>
</g>
<g>
</g>
<g>
</g>
<g>
</g>
<g>
</g>
<g>
</g>
<g>
</g>
<g>
</g>
<g>
</g>
<g>
</g>
<g>
</g>
<g>
</g>
</svg>
