<?xml version="1.0" encoding="iso-8859-1"?>
<!-- Generator: Adobe Illustrator 19.0.0, SVG Export Plug-In . SVG Version: 6.00 Build 0)  -->
<svg version="1.1" id="Capa_1" xmlns="http://www.w3.org/2000/svg" xmlns:xlink="http://www.w3.org/1999/xlink" x="0px" y="0px"
	 viewBox="0 0 201.385 201.385" style="enable-background:new 0 0 201.385 201.385;" xml:space="preserve">
<polygon style="fill:#FFFFFF;" points="107.717,16.425 5.126,16.425 5.126,197.972 128.006,197.972 128.006,36.977 "/>
<path style="fill:#602F75;" d="M128.006,201.385H5.126c-1.884,0-3.413-1.529-3.413-3.413V16.425c0-1.884,1.529-3.413,3.413-3.413
	h102.591c0.913,0,1.787,0.365,2.429,1.015l20.289,20.552c0.631,0.64,0.985,1.5,0.985,2.398v160.995
	C131.419,199.856,129.891,201.385,128.006,201.385z M8.539,194.558h116.053V38.378l-18.302-18.54H8.539V194.558z"/>
<rect x="8.534" y="156.858" style="fill:#EA3457;" width="116.053" height="37.683"/>
<path style="fill:#00E7FF;" d="M191.273,32.649L76.249,148.081L52.113,123.86L167.138,8.428c6.665-6.688,17.471-6.688,24.136,0l0,0
	C197.938,15.116,197.938,25.96,191.273,32.649z"/>
<path style="fill:#602F75;" d="M76.249,151.494c-0.908,0-1.778-0.362-2.418-1.004l-24.137-24.221c-1.328-1.331-1.328-3.487,0-4.818
	L164.718,6.021C168.587,2.138,173.731,0,179.204,0s10.617,2.138,14.486,6.021c7.977,8.006,7.977,21.033,0,29.039l0,0L78.666,150.492
	C78.027,151.132,77.157,151.494,76.249,151.494z M56.931,123.86l19.318,19.386L188.855,30.24l0,0c5.33-5.349,5.33-14.053,0-19.403
	c-2.579-2.587-6.006-4.012-9.65-4.012c-3.644,0-7.072,1.425-9.65,4.012L56.931,123.86z M191.273,32.649h0.017H191.273z"/>
<polygon style="fill:#EAEAEA;" points="42.459,157.769 76.249,148.081 52.113,123.86 "/>
<path style="fill:#602F75;" d="M42.459,161.183c-0.891,0-1.763-0.35-2.412-0.997c-0.877-0.876-1.21-2.159-0.87-3.35l9.655-33.91
	c0.331-1.164,1.254-2.067,2.427-2.369c1.174-0.304,2.418,0.038,3.272,0.894l24.137,24.221c0.853,0.855,1.19,2.098,0.887,3.267
	c-0.304,1.169-1.203,2.091-2.364,2.423l-33.79,9.689C43.09,161.138,42.773,161.183,42.459,161.183z M53.803,130.389l-6.378,22.405
	l22.327-6.402L53.803,130.389z"/>
<path style="fill:#602F75;" d="M76.249,132.116c-0.872,0-1.743-0.331-2.41-0.995c-1.336-1.33-1.34-3.492-0.009-4.826l102.956-103.32
	c1.329-1.336,3.49-1.341,4.826-0.009c1.336,1.329,1.34,3.492,0.009,4.826L78.666,131.113C78,131.782,77.126,132.116,76.249,132.116z
	"/>
<rect x="18.774" y="33.551" style="fill:#FFE600;" width="61.44" height="30.822"/>
<path style="fill:#602F75;" d="M80.219,67.794h-61.44c-1.884,0-3.413-1.529-3.413-3.413V33.551c0-1.884,1.529-3.413,3.413-3.413
	h61.44c1.884,0,3.413,1.529,3.413,3.413v30.829C83.632,66.266,82.105,67.794,80.219,67.794z M22.192,60.967h54.613V36.965H22.192
	L22.192,60.967L22.192,60.967z"/>
<path style="fill:#602F75;" d="M93.872,84.92H18.779c-1.884,0-3.413-1.529-3.413-3.413c0-1.884,1.529-3.413,3.413-3.413h75.093
	c1.884,0,3.413,1.529,3.413,3.413C97.286,83.391,95.758,84.92,93.872,84.92z"/>
<path style="fill:#602F75;" d="M76.806,102.048H18.779c-1.884,0-3.413-1.529-3.413-3.413c0-1.884,1.529-3.413,3.413-3.413h58.027
	c1.884,0,3.413,1.529,3.413,3.413C80.219,100.519,78.691,102.048,76.806,102.048z"/>
<path style="fill:#602F75;" d="M56.326,173.981H18.779c-1.884,0-3.413-1.529-3.413-3.413s1.529-3.413,3.413-3.413h37.547
	c1.884,0,3.413,1.529,3.413,3.413S58.211,173.981,56.326,173.981z"/>
<g>
</g>
<g>
</g>
<g>
</g>
<g>
</g>
<g>
</g>
<g>
</g>
<g>
</g>
<g>
</g>
<g>
</g>
<g>
</g>
<g>
</g>
<g>
</g>
<g>
</g>
<g>
</g>
<g>
</g>
</svg>
